<?xml version="1.0" encoding="iso-8859-1"?>
<!-- Generator: Adobe Illustrator 21.0.0, SVG Export Plug-In . SVG Version: 6.00 Build 0)  -->
<svg version="1.1" id="Isolation_Mode" xmlns="http://www.w3.org/2000/svg" xmlns:xlink="http://www.w3.org/1999/xlink" x="0px"
	 y="0px" viewBox="0 0 9.465 5.52" style="enable-background:new 0 0 9.465 5.52;" xml:space="preserve">
<path style="fill:#CCCCCC;" d="M4.733,5.306c0.075,0,0.143-0.029,0.201-0.088L9.012,1.14c0.058-0.057,0.087-0.125,0.087-0.2
	c0-0.076-0.029-0.143-0.088-0.201L8.574,0.301C8.516,0.243,8.449,0.213,8.373,0.213S8.23,0.242,8.172,0.301L4.733,3.74l-3.44-3.439
	C1.235,0.243,1.168,0.213,1.092,0.213c-0.075,0-0.143,0.029-0.201,0.088L0.453,0.738C0.395,0.797,0.366,0.864,0.366,0.94
	s0.029,0.143,0.087,0.201l4.078,4.078C4.589,5.278,4.657,5.306,4.733,5.306L4.733,5.306z"/>
</svg>
