<?xml version="1.0" encoding="iso-8859-1"?>
<!-- Generator: Adobe Illustrator 21.0.0, SVG Export Plug-In . SVG Version: 6.00 Build 0)  -->
<svg version="1.1" id="Isolation_Mode" xmlns="http://www.w3.org/2000/svg" xmlns:xlink="http://www.w3.org/1999/xlink" x="0px"
	 y="0px" viewBox="0 0 5.093 8.733" style="enable-background:new 0 0 5.093 8.733;" xml:space="preserve">
<path style="fill:#FFFFFF;" d="M5.093,4.367c0-0.075-0.029-0.143-0.088-0.201L0.928,0.088C0.869,0.029,0.802,0,0.726,0
	C0.65,0,0.583,0.029,0.525,0.088L0.088,0.525C0.029,0.583,0,0.65,0,0.726C0,0.802,0.029,0.87,0.088,0.928l3.439,3.439L0.088,7.806
	C0.029,7.864,0,7.931,0,8.007C0,8.083,0.029,8.15,0.088,8.209l0.437,0.437C0.583,8.704,0.65,8.733,0.726,8.733
	c0.076,0,0.143-0.029,0.201-0.087l4.078-4.078C5.064,4.51,5.093,4.443,5.093,4.367L5.093,4.367z M5.093,4.367"/>
</svg>
