<?xml version="1.0" encoding="iso-8859-1"?>
<!-- Generator: Adobe Illustrator 21.0.0, SVG Export Plug-In . SVG Version: 6.00 Build 0)  -->
<svg version="1.1" id="Layer_1" xmlns="http://www.w3.org/2000/svg" xmlns:xlink="http://www.w3.org/1999/xlink" x="0px" y="0px"
	 viewBox="0 0 255.12 141.73" style="enable-background:new 0 0 255.12 141.73;" xml:space="preserve">
<path style="fill:#FFFFFF;" d="M171.798,48.43L171.798,48.43c-0.887-0.512-1.806-0.998-2.744-1.451
	c0.076-1.03,0.113-2.069,0.113-3.103c0-23.383-19.023-42.406-42.405-42.406c-23.383,0-42.406,19.023-42.406,42.406
	c0,1.03,0.038,2.069,0.113,3.103c-0.941,0.455-1.86,0.941-2.743,1.452c-9.794,5.655-16.805,14.801-19.74,25.753
	c-2.935,10.954-1.437,22.38,4.218,32.174c7.554,13.083,21.639,21.21,36.76,21.21c7.4,0,14.719-1.967,21.166-5.688
	c0.89-0.514,1.771-1.066,2.631-1.648c0.855,0.579,1.737,1.131,2.63,1.647c6.447,3.722,13.766,5.689,21.167,5.689
	c15.12,0,29.205-8.127,36.76-21.21C199.01,86.108,192.047,60.122,171.798,48.43z M126.762,108.284
	c-3.924-4.032-6.758-9.027-8.235-14.538c-0.751-2.8-1.134-5.655-1.145-8.512c6.136,1.39,12.621,1.39,18.759,0
	c-0.011,2.858-0.395,5.713-1.146,8.514v-0.001C133.519,99.257,130.686,104.252,126.762,108.284z M109.635,96.129
	c1.791,6.687,5.165,12.807,9.809,17.824c-5.026,2.882-10.722,4.405-16.479,4.405c-11.843,0-22.873-6.362-28.787-16.604
	c-4.426-7.667-5.598-16.612-3.3-25.188c2.291-8.549,7.752-15.691,15.383-20.121c3.463,11.09,11.534,20.488,22.024,25.594
	C107.939,86.759,108.392,91.494,109.635,96.129z M121.844,68.556c1.363-2.36,3.014-4.541,4.918-6.5
	c1.906,1.961,3.556,4.141,4.917,6.5c1.377,2.383,2.448,4.904,3.196,7.512c-5.288,1.334-10.937,1.334-16.225,0
	C119.397,73.458,120.468,70.938,121.844,68.556z M102.893,51.95c5.826,0,11.511,1.527,16.564,4.435
	c-2.145,2.314-4.019,4.852-5.586,7.568c-1.583,2.741-2.853,5.633-3.787,8.62c-7.457-4.338-12.909-11.341-15.259-19.615
	C97.471,52.288,100.178,51.95,102.893,51.95z M143.439,72.572c-0.934-2.988-2.204-5.879-3.785-8.62v-0.001
	c-1.571-2.718-3.445-5.256-5.587-7.568c5.051-2.907,10.736-4.434,16.563-4.434c2.716,0,5.424,0.338,8.069,1.007
	C156.348,61.231,150.896,68.233,143.439,72.572z M150.63,42.744c-8.555,0-16.781,2.541-23.869,7.361
	c-7.086-4.82-15.312-7.361-23.868-7.361c-3.129,0-6.258,0.353-9.33,1.052c0.044-18.269,14.92-33.119,33.199-33.119
	c18.278,0,33.153,14.85,33.197,33.119C156.887,43.097,153.758,42.744,150.63,42.744z M143.89,96.131
	c1.241-4.634,1.694-9.368,1.349-14.092c10.491-5.107,18.562-14.506,22.025-25.594c7.63,4.429,13.091,11.572,15.382,20.121
	c2.298,8.576,1.125,17.521-3.301,25.188c-5.914,10.243-16.945,16.607-28.786,16.607c-5.756,0-11.451-1.524-16.479-4.407
	C138.724,108.937,142.098,102.818,143.89,96.131z"/>
</svg>
