<?xml version="1.0" encoding="iso-8859-1"?>
<!-- Generator: Adobe Illustrator 21.0.0, SVG Export Plug-In . SVG Version: 6.00 Build 0)  -->
<svg version="1.1" id="Layer_1" xmlns="http://www.w3.org/2000/svg" xmlns:xlink="http://www.w3.org/1999/xlink" x="0px" y="0px"
	 viewBox="0 0 35.199 35.199" style="enable-background:new 0 0 35.199 35.199;" xml:space="preserve">
<g>
	<path style="fill:#4caf50;" d="M17.602,0C7.84,0,0,7.84,0,17.602c0,9.757,7.84,17.597,17.602,17.597
		c9.757,0,17.597-7.84,17.597-17.597C35.199,7.84,27.359,0,17.602,0L17.602,0z M27.762,12.078L14.961,25.359
		c-0.16,0.161-0.32,0.243-0.563,0.243c-0.238,0-0.476-0.082-0.558-0.243l-6.238-6.718L7.441,18.48
		c-0.16-0.16-0.242-0.402-0.242-0.558c0-0.16,0.082-0.402,0.242-0.563l1.118-1.121c0.32-0.316,0.8-0.316,1.121,0l0.082,0.082
		l4.398,4.719c0.16,0.16,0.399,0.16,0.559,0L25.441,9.922h0.079c0.32-0.32,0.8-0.32,1.121,0l1.121,1.117
		C28.078,11.281,28.078,11.762,27.762,12.078L27.762,12.078z M27.762,12.078"/>
</g>
<path style="fill:#FFFFFF;" d="M27.762,12.078L14.961,25.359c-0.16,0.161-0.32,0.243-0.563,0.243c-0.238,0-0.476-0.082-0.558-0.243
	l-6.238-6.718L7.441,18.48c-0.16-0.16-0.242-0.402-0.242-0.558c0-0.16,0.082-0.402,0.242-0.563l1.118-1.121
	c0.32-0.316,0.8-0.316,1.121,0l0.082,0.082l4.398,4.719c0.16,0.16,0.399,0.16,0.559,0L25.441,9.922h0.079
	c0.32-0.32,0.8-0.32,1.121,0l1.121,1.117C28.078,11.281,28.078,11.762,27.762,12.078L27.762,12.078z"/>
</svg>
