<?xml version="1.0" encoding="iso-8859-1"?>
<!-- Generator: Adobe Illustrator 21.0.0, SVG Export Plug-In . SVG Version: 6.00 Build 0)  -->
<svg version="1.1" id="Layer_1" xmlns="http://www.w3.org/2000/svg" xmlns:xlink="http://www.w3.org/1999/xlink" x="0px" y="0px"
	 viewBox="0 0 55.44 51.333" style="enable-background:new 0 0 55.44 51.333;" xml:space="preserve">
<g>
	<g>
		<path style="fill:#FFFFFF;" d="M54.174,22.66L28.507,0.415c-0.65-0.548-1.604-0.548-2.237,0l-9.159,7.922V5.129
			c0-1.887-1.536-3.426-3.426-3.426c-1.887,0-3.426,1.54-3.426,3.426v9.142L0.586,22.66c-0.702,0.616-0.787,1.703-0.167,2.421
			c0.616,0.702,1.702,0.787,2.421,0.167L27.369,3.974l24.55,21.273c0.334,0.287,0.719,0.419,1.116,0.419
			c0.488,0,0.954-0.201,1.305-0.586C54.961,24.362,54.875,23.293,54.174,22.66L54.174,22.66z M54.174,22.66"/>
	</g>
	<path style="fill:#FFFFFF;" d="M29.542,12.748c-0.616-0.518-1.386-0.766-2.173-0.766c-0.766,0-1.536,0.248-2.152,0.766
		L8.106,26.788c-0.804,0.65-1.253,1.617-1.253,2.639v16.777c0,1.887,1.519,3.422,3.405,3.422h10.279V32.515h13.685v17.111H44.48
		c1.891,0,3.426-1.536,3.426-3.422V29.427c0-1.022-0.449-1.989-1.253-2.639L29.542,12.748z M29.542,12.748"/>
</g>
</svg>
