<?xml version="1.0" encoding="iso-8859-1"?>
<!-- Generator: Adobe Illustrator 21.0.0, SVG Export Plug-In . SVG Version: 6.00 Build 0)  -->
<svg version="1.1" id="Layer_1" xmlns="http://www.w3.org/2000/svg" xmlns:xlink="http://www.w3.org/1999/xlink" x="0px" y="0px"
	 viewBox="0 0 72 56.57" style="enable-background:new 0 0 72 56.57;" xml:space="preserve">
<g>
	<path style="fill:#FFFFFF;" d="M65.57,56.57c1.618,0,3.02-0.535,4.211-1.59L49.387,34.582c-0.492,0.351-0.965,0.691-1.414,1.015
		c-1.528,1.125-2.766,2.004-3.715,2.633c-0.953,0.629-2.219,1.27-3.797,1.926c-1.582,0.656-3.055,0.984-4.422,0.984h-0.078
		c-1.367,0-2.84-0.328-4.422-0.984c-1.582-0.656-2.848-1.297-3.797-1.926c-0.949-0.629-2.187-1.508-3.715-2.633
		c-0.425-0.312-0.898-0.656-1.41-1.019L2.215,54.98c1.191,1.055,2.594,1.59,4.215,1.59H65.57z M65.57,56.57"/>
	<path style="fill:#FFFFFF;" d="M4.059,21.738C2.531,20.719,1.18,19.554,0,18.242v31.035l17.98-17.98
		C14.383,28.785,9.746,25.601,4.059,21.738L4.059,21.738z M4.059,21.738"/>
	<path style="fill:#FFFFFF;" d="M67.98,21.738c-5.472,3.703-10.121,6.891-13.953,9.566L72,49.277V18.242
		C70.848,19.527,69.508,20.691,67.98,21.738L67.98,21.738z M67.98,21.738"/>
	<path style="fill:#FFFFFF;" d="M65.57,0H6.43C4.367,0,2.777,0.695,1.668,2.09C0.555,3.48,0,5.222,0,7.312
		C0,9,0.738,10.828,2.211,12.797c1.473,1.968,3.039,3.515,4.699,4.64c0.91,0.641,3.656,2.551,8.238,5.727
		c2.473,1.711,4.622,3.207,6.473,4.496c1.574,1.098,2.934,2.047,4.055,2.836c0.129,0.09,0.328,0.234,0.597,0.426
		c0.289,0.207,0.657,0.472,1.11,0.8c0.871,0.629,1.594,1.137,2.168,1.524c0.578,0.391,1.273,0.824,2.09,1.308
		c0.816,0.481,1.589,0.844,2.312,1.083C34.676,35.879,35.344,36,35.961,36h0.078c0.617,0,1.289-0.121,2.012-0.363
		c0.722-0.239,1.492-0.602,2.308-1.083c0.817-0.484,1.512-0.917,2.09-1.308c0.578-0.387,1.301-0.895,2.172-1.524
		c0.449-0.328,0.817-0.593,1.106-0.8c0.269-0.192,0.472-0.336,0.601-0.426c0.871-0.609,2.234-1.555,4.067-2.828
		c3.328-2.313,8.234-5.719,14.734-10.231c1.957-1.367,3.59-3.015,4.902-4.941C71.344,10.566,72,8.543,72,6.429
		c0-1.769-0.637-3.281-1.91-4.542C68.82,0.629,67.312,0,65.57,0L65.57,0z M65.57,0"/>
</g>
</svg>
