<?xml version="1.0" encoding="iso-8859-1"?>
<!-- Generator: Adobe Illustrator 21.0.0, SVG Export Plug-In . SVG Version: 6.00 Build 0)  -->
<svg version="1.1" id="Layer_1" xmlns="http://www.w3.org/2000/svg" xmlns:xlink="http://www.w3.org/1999/xlink" x="0px" y="0px"
	 viewBox="0 0 91.117 91.115" style="enable-background:new 0 0 91.117 91.115;" xml:space="preserve">
<g>
	<g>
		<path style="fill:#FFFFFF;" d="M52.358,91.115c0.087,0,0.174-0.038,0.242-0.105l0,0c0.068-0.068,0.107-0.158,0.107-0.245V52.707
			h38.058c0.091,0,0.188-0.04,0.249-0.108c0.065-0.065,0.102-0.15,0.101-0.232l0.003-13.608c0-0.094-0.037-0.182-0.104-0.249
			c-0.067-0.067-0.155-0.104-0.249-0.104H52.707l0-38.058c0-0.094-0.037-0.182-0.103-0.248S52.451,0,52.358,0l-13.6,0
			c-0.178-0.001-0.35,0.176-0.349,0.347l-0.001,38.06H0.35c-0.15,0-0.349,0.201-0.35,0.346l0,13.605
			c0,0.093,0.036,0.181,0.102,0.247c0.066,0.066,0.154,0.103,0.248,0.103l38.058,0v38.058c0,0.094,0.037,0.182,0.102,0.247
			c0.066,0.066,0.154,0.102,0.247,0.102H52.358z"/>
	</g>
</g>
</svg>
