<?xml version="1.0" encoding="iso-8859-1"?>
<!-- Generator: Adobe Illustrator 21.0.0, SVG Export Plug-In . SVG Version: 6.00 Build 0)  -->
<svg version="1.1" id="Layer_1" xmlns="http://www.w3.org/2000/svg" xmlns:xlink="http://www.w3.org/1999/xlink" x="0px" y="0px"
	 viewBox="0 0 25.92 18" style="enable-background:new 0 0 25.92 18;" xml:space="preserve">
<g>
	<g>
		<defs>
			<rect id="SVGID_1_" y="0" width="25.92" height="18"/>
		</defs>
		<clipPath id="SVGID_2_">
			<use xlink:href="#SVGID_1_"  style="overflow:visible;"/>
		</clipPath>
		<path style="clip-path:url(#SVGID_2_);fill:#FFFFFF;" d="M24.268,7.929H5.314l5.382-5.369c0.464-0.482,0.461-1.251-0.005-1.713
			c-0.234-0.234-0.535-0.354-0.873-0.358C9.496,0.492,9.194,0.621,8.974,0.848L1.536,8.287C1.3,8.514,1.171,8.82,1.172,9.147
			c0.001,0.325,0.13,0.628,0.359,0.847l7.441,7.444c0.224,0.23,0.524,0.358,0.846,0.361c0.003,0,0.007,0,0.011,0
			c0.324,0,0.63-0.127,0.863-0.359c0.47-0.47,0.47-1.235,0-1.706l-5.379-5.378h18.955c0.666,0,1.208-0.542,1.208-1.208
			C25.476,8.476,24.934,7.929,24.268,7.929z"/>
	</g>
</g>
</svg>
