<?xml version="1.0" encoding="iso-8859-1"?>
<!-- Generator: Adobe Illustrator 21.0.0, SVG Export Plug-In . SVG Version: 6.00 Build 0)  -->
<svg version="1.1" id="Layer_1" xmlns="http://www.w3.org/2000/svg" xmlns:xlink="http://www.w3.org/1999/xlink" x="0px" y="0px"
	 viewBox="0 0 23.011 23.026" style="enable-background:new 0 0 23.011 23.026;" xml:space="preserve">
<g>
	<path style="fill:#ffffff;" d="M23.011,21.605"/>
	<path style="fill:#ffffff;" d="M0.971,19.29V0.485C0.971,0.217,0.754,0,0.485,0C0.217,0,0,0.217,0,0.485V19.29H0.971z"/>
	<path style="fill:#ffffff;" d="M18.048,18.471l-3.73-3.726c-0.189-0.189-0.493-0.189-0.683,0c-0.189,0.189-0.189,0.493,0,0.683
		l2.905,2.905H0.011c-0.004,0-0.007,0.002-0.011,0.002v0.966c0.004,0,0.007,0.002,0.011,0.002h16.529l-2.905,2.897
		c-0.189,0.189-0.189,0.493,0,0.683c0.095,0.095,0.217,0.142,0.343,0.142c0.126,0,0.249-0.047,0.343-0.142l3.73-3.73
		C18.238,18.968,18.238,18.66,18.048,18.471z"/>
</g>
</svg>
