<?xml version="1.0" encoding="iso-8859-1"?>
<!-- Generator: Adobe Illustrator 21.0.0, SVG Export Plug-In . SVG Version: 6.00 Build 0)  -->
<svg version="1.1" id="Layer_1" xmlns="http://www.w3.org/2000/svg" xmlns:xlink="http://www.w3.org/1999/xlink" x="0px" y="0px"
	 viewBox="0 0 409.92 410" style="enable-background:new 0 0 409.92 410;" xml:space="preserve">
<g>
	<path style="fill:#FFFFFF;" d="M307.199,153.601C307.199,68.773,238.426,0,153.602,0C68.773,0,0,68.773,0,153.601
		c0,84.824,68.773,153.598,153.602,153.598C238.426,307.199,307.199,238.425,307.199,153.601L307.199,153.601z M153.602,268.8
		c-63.528,0-115.204-51.675-115.204-115.199c0-63.527,51.676-115.203,115.204-115.203c63.523,0,115.199,51.676,115.199,115.203
		C268.801,217.125,217.125,268.8,153.602,268.8L153.602,268.8z M153.602,268.8"/>
	<path style="fill:#FFFFFF;" d="M64,153.601h25.602c0-35.289,28.71-64,64-64V64C104.199,64,64,104.199,64,153.601L64,153.601z
		 M64,153.601"/>
	<path style="fill:#FFFFFF;" d="M398.352,344.05l-93.977-93.976c-14,21.777-32.523,40.301-54.301,54.301l93.977,93.976
		c15,15,39.324,15,54.301,0C413.352,383.375,413.352,359.05,398.352,344.05L398.352,344.05z M398.352,344.05"/>
</g>
</svg>
