<?xml version="1.0" encoding="iso-8859-1"?>
<!-- Generator: Adobe Illustrator 21.0.0, SVG Export Plug-In . SVG Version: 6.00 Build 0)  -->
<svg version="1.1" id="Layer_1" xmlns="http://www.w3.org/2000/svg" xmlns:xlink="http://www.w3.org/1999/xlink" x="0px" y="0px"
	 viewBox="0 0 50.059 79.257" style="enable-background:new 0 0 50.059 79.257;" xml:space="preserve">
<g>
	<path style="fill:#777;" d="M48.82,1.238C47.992,0.414,47.016,0,45.887,0s-2.11,0.414-2.934,1.238L21.25,22.941H4.172
		c-1.129,0-2.11,0.414-2.934,1.238C0.414,25.007,0,25.984,0,27.113v25.031c0,1.129,0.414,2.11,1.238,2.93
		c0.828,0.828,1.805,1.242,2.934,1.242h17.074l21.707,21.703c0.824,0.824,1.805,1.238,2.934,1.238s2.105-0.414,2.933-1.238
		c0.825-0.824,1.239-1.801,1.239-2.93V4.171C50.059,3.043,49.645,2.062,48.82,1.238L48.82,1.238z M48.82,1.238"/>
</g>
</svg>
